<svg width="22" height="22" viewBox="0 0 22 22" fill="none" xmlns="http://www.w3.org/2000/svg">
<path d="M11.6564 21.0185H9.31675L8.53572 18.6377C7.69365 18.4339 6.88884 18.0991 6.15065 17.6456L3.88915 18.752L2.23462 17.0975L3.36535 14.8612C2.91098 14.121 2.5754 13.3143 2.3708 12.4702L0 11.6564V9.3167L2.36829 8.53905C2.57195 7.69113 2.90845 6.8808 3.36535 6.13803L2.26571 3.88827L3.92024 2.23375L6.14393 3.35862C6.88858 2.89992 7.70123 2.56225 8.55168 2.35818L9.36129 0H11.701L12.4761 2.36157C13.3263 2.5665 14.1386 2.90469 14.8831 3.36365L17.1286 2.26571L18.7831 3.92024L17.6574 6.14727C18.1133 6.89064 18.4492 7.70121 18.6528 8.54916L21.0177 9.36129V11.7009L18.6436 12.4803C18.4387 13.324 18.1025 14.1303 17.6473 14.8696L18.752 17.1277L17.0966 18.7823L14.857 17.6498C14.1183 18.1017 13.3136 18.4352 12.4719 18.6385L11.6564 21.0185ZM9.8346 20.3031H11.1453L11.9263 18.0281L12.1239 17.9853C13.021 17.7923 13.8756 17.4379 14.646 16.9394L14.8183 16.8293L16.9588 17.9113L17.8836 16.9865L16.8276 14.8259L16.9378 14.6577C17.4383 13.8877 17.7946 13.0331 17.9895 12.1356L18.0332 11.9355L20.3031 11.1906V9.88083L18.0399 9.10319L17.9979 8.90476C17.8055 8.00194 17.4493 7.14199 16.947 6.3675L16.836 6.19519L17.9113 4.06736L16.9865 3.14255L14.8377 4.19261L14.6695 4.08249C13.8941 3.57748 13.0327 3.21872 12.1281 3.02401L11.9271 2.98117L11.1865 0.723869H9.87329L9.09816 2.97947L8.89973 3.02232C7.9949 3.21601 7.13324 3.57393 6.35744 4.07829L6.18508 4.1901L4.06063 3.11484L3.13588 4.0396L4.18676 6.19011L4.07659 6.35826C3.57416 7.13296 3.21719 7.99278 3.02319 8.89552L2.98035 9.09647L0.716275 9.83963V11.1469L2.9862 11.9254L3.02909 12.123C3.22285 13.0223 3.57897 13.8787 4.07998 14.6502L4.19097 14.8234L3.11063 16.9605L4.03544 17.8852L6.19858 16.8276L6.36668 16.9377C7.13726 17.4361 7.99177 17.7907 8.8888 17.9844L9.08974 18.029L9.8346 20.3031Z" fill="#000"/>
<path d="M10.4349 15.1311C9.55642 15.1311 8.69773 14.8706 7.96733 14.3825C7.23694 13.8945 6.6677 13.2009 6.33154 12.3893C5.99537 11.5777 5.90739 10.6847 6.07877 9.82315C6.25014 8.96159 6.67317 8.17017 7.29432 7.54902C7.91547 6.92787 8.70684 6.50489 9.56839 6.33352C10.43 6.16215 11.323 6.25007 12.1345 6.58624C12.9461 6.9224 13.6398 7.49169 14.1278 8.22208C14.6159 8.95248 14.8763 9.81117 14.8763 10.6896C14.875 11.8672 14.4067 12.9961 13.574 13.8287C12.7414 14.6614 11.6124 15.1298 10.4349 15.1311ZM10.4349 6.96359C9.69792 6.96359 8.97754 7.18213 8.3648 7.59155C7.75206 8.00097 7.27451 8.58289 6.99249 9.26373C6.71048 9.94457 6.6367 10.6937 6.78047 11.4165C6.92424 12.1393 7.27912 12.8032 7.80021 13.3243C8.3213 13.8454 8.98519 14.2003 9.70796 14.3441C10.4307 14.4878 11.18 14.414 11.8608 14.132C12.5416 13.85 13.1236 13.3724 13.533 12.7597C13.9424 12.1469 14.1609 11.4265 14.1609 10.6896C14.1595 9.7019 13.7666 8.75505 13.0681 8.0567C12.3696 7.35836 11.4226 6.96557 10.4349 6.96446V6.96359Z" fill="#000"/>
</svg>
